/* XPM */
static char * i_xpm[] = {
"17 17 2 1",
" 	c #222222",
".	c #DDDDDD",
"                 ",
"                 ",
"                 ",
"                 ",
"                 ",
"                 ",
"                 ",
"                 ",
"                 ",
"                 ",
"                 ",
"    .........    ",
"    .........    ",
"                 ",
"                 ",
"                 ",
"                 "};
