/* XPM */
static char * close_xpm[] = {
"16 16 8 1",
" 	c None",
".	c #303030",
"+	c #AAAAAA",
"@	c #AFAFAF",
"#	c #B0B0B0",
"$	c #ACACAC",
"%	c #B1B1B1",
"&	c #ADADAD",
"................",
"................",
"................",
"................",
"................",
".....+..@.......",
".....#..$.......",
"......%+........",
".....&..&.......",
".....&..&.......",
"................",
"................",
"................",
"................",
"................",
"................"};
