/* XPM */
static char * max_xpm[] = {
"16 16 8 1",
" 	c None",
".	c #303030",
"+	c #AAAAAA",
"@	c #B0B0B0",
"#	c #ABABAB",
"$	c #ADADAD",
"%	c #AEAEAE",
"&	c #A8A8A8",
"................",
"................",
"................",
"................",
"................",
".......+........",
".......@........",
".....#$$%&......",
".......$........",
".......%........",
"................",
"................",
"................",
"................",
"................",
"................"};
