/* XPM */
static char * toolbar__xpm[] = {
"10 18 3 1",
" 	c None",
".	c #B4B4B4",
"+	c #303030",
"..........",
"..........",
"++++++++++",
"++++++++++",
"++++++++++",
"++++++++++",
"++++++++++",
"++++++++++",
"++++++++++",
"++++++++++",
"++++++++++",
"++++++++++",
"++++++++++",
"++++++++++",
"++++++++++",
"++++++++++",
"++++++++++",
"++++++++++"};
