/* XPM */
static char * closepr_xpm[] = {
"18 18 27 1",
" 	c None",
".	c #313131",
"+	c #323232",
"@	c #333333",
"#	c #343434",
"$	c #353535",
"%	c #373737",
"&	c #383838",
"*	c #3A3A3A",
"=	c #3F3F3F",
"-	c #414141",
";	c #444444",
">	c #3E3E3E",
",	c #494949",
"'	c #535353",
")	c #5B5B5B",
"!	c #5D5D5D",
"~	c #5F5F5F",
"{	c #777777",
"]	c #838383",
"^	c #888888",
"/	c #606060",
"(	c #757575",
"_	c #FFFFFF",
":	c #AEAEAE",
"<	c #B5B5B5",
"[	c #D1D1D1",
"......+++++.......",
"....+@@###@@+.....",
"...+@$$%&%$$@+....",
"..+#$*=-;-=*$#+...",
".+@$>,')!)',>$@+..",
".@$*,~{]^]{/,*$@..",
"+@$='(_:<:_('=$@+.",
"+#%-)]:_[_:])-%#+.",
"+#&;!^<[_[<^!;&#+.",
"+#%-)]:_[_:])-%#+.",
"+@$='(_:<:_('=$@+.",
".@$*,~{]^]{~,*$@..",
".+@$>,')!)',>$@+..",
"..+#$*=-;-=*$#+...",
"...+@$$%&%$$@+....",
"....+@@###@@+.....",
"......+++++.......",
".................."};
