/* XPM */
static char * lhalfpr_xpm[] = {
"18 18 27 1",
" 	c None",
".	c #313131",
"+	c #383838",
"@	c #3F3F3F",
"#	c #444444",
"$	c #474747",
"%	c #4D4D4D",
"&	c #5C5C5C",
"*	c #646464",
"=	c #606060",
"-	c #575757",
";	c #797979",
">	c #818181",
",	c #727272",
"'	c #919191",
")	c #9C9C9C",
"!	c #FFFFFF",
"~	c #858585",
"{	c #696969",
"]	c #8C8C8C",
"^	c #A4A4A4",
"/	c #A6A6A6",
"(	c #525252",
"_	c #B3B3B3",
":	c #ABABAB",
"<	c #959595",
"[	c #767676",
"..................",
"..................",
"......++++........",
"....+@#$$#@+......",
"...+@%&*=-$@......",
"...@%*;>>,&$+.....",
"..+$=;')!~{%+.....",
"..+%{]^!/',(@.....",
"..@(,'!_:<[(@.....",
"..+%{]^!/',(@.....",
"..+$=;')!~{%+.....",
"...@%*;>>,&$+.....",
"...+@%&*=-$@......",
"....+@#$$#@+......",
"......++++........",
"..................",
"..................",
".................."};
