/* XPM */
static char * maxpr_xpm[] = {
"18 18 27 1",
" 	c None",
".	c #313131",
"+	c #323232",
"@	c #333333",
"#	c #343434",
"$	c #353535",
"%	c #373737",
"&	c #383838",
"*	c #3B3B3B",
"=	c #3F3F3F",
"-	c #444444",
";	c #3A3A3A",
">	c #424242",
",	c #4C4C4C",
"'	c #5A5A5A",
")	c #5F5F5F",
"!	c #515151",
"~	c #6C6C6C",
"{	c #828282",
"]	c #8D8D8D",
"^	c #929292",
"/	c #B2B2B2",
"(	c #FFFFFF",
"_	c #414141",
":	c #595959",
"<	c #838383",
"[	c #D2D2D2",
"......+++++.......",
"....+@@###@@+.....",
"...+@$$%&%$$@+....",
"..+#$&*=-=*&$#+...",
".+@$;>,')',>;$@+..",
".@$&>!~{]{~!>&$@..",
"+@$*,~^/(/^~,*$@+.",
"+#%_:</[([/<:_%#+.",
"+#&-)](((((])-&#+.",
"+#%_:</[([/<:_%#+.",
"+@$*,~^/(/^~,*$@+.",
".@$&>!~<]<~!>&$@..",
".+@$;>,')',>;$@+..",
"..+#$&*=-=*&$#+...",
"...+@$$%&%$$@+....",
"....+@@###@@+.....",
"......+++++.......",
".................."};
