/* XPM */
static char * menuiconufcs_xpm[] = {
"18 18 3 1",
" 	c None",
".	c #262626",
"+	c #9D9D9D",
"..................",
"..................",
"..................",
"..................",
"..................",
"..................",
"......+++++.......",
"..................",
"......+++++.......",
"..................",
"......+++++.......",
"..................",
"..................",
"..................",
"..................",
"..................",
"..................",
".................."};
