/* XPM */
static char * menuiconpr_xpm[] = {
"18 18 28 1",
" 	c None",
".	c #313131",
"+	c #333333",
"@	c #353535",
"#	c #393939",
"$	c #3D3D3D",
"%	c #383838",
"&	c #414141",
"*	c #4E4E4E",
"=	c #575757",
"-	c #595959",
";	c #404040",
">	c #535353",
",	c #6D6D6D",
"'	c #7E7E7E",
")	c #838383",
"!	c #565656",
"~	c #373737",
"{	c #484848",
"]	c #666666",
"^	c #FFFFFF",
"/	c #4C4C4C",
"(	c #707070",
"_	c #979797",
":	c #B1B1B1",
"<	c #BABABA",
"[	c #737373",
"}	c #747474",
"..................",
"..................",
".......+++........",
".....@#$$$#@......",
"....%&*=-=*&%.....",
"...@;>,')',!;@....",
"...~{]^^^^^]{~....",
"...%/(_:<:_(/%....",
"...%*[^^^^^}*%....",
"...%/(_:<:_(/%....",
"...~{]^^^^^]{~....",
"...@;>,')',>;@....",
"....%&*=-=*&%.....",
".....@#$$$#@......",
".......+++........",
"..................",
"..................",
".................."};
