/* XPM */
static char * minpr_xpm[] = {
"18 18 35 1",
" 	c None",
".	c #313131",
"+	c #323232",
"@	c #333333",
"#	c #343434",
"$	c #353535",
"%	c #363636",
"&	c #3A3A3A",
"*	c #3C3C3C",
"=	c #3F3F3F",
"-	c #393939",
";	c #444444",
">	c #4E4E4E",
",	c #505050",
"'	c #4D4D4D",
")	c #5F5F5F",
"!	c #6E6E6E",
"~	c #747474",
"{	c #4F4F4F",
"]	c #414141",
"^	c #4A4A4A",
"/	c #646464",
"(	c #838383",
"_	c #9A9A9A",
":	c #A2A2A2",
"<	c #3E3E3E",
"[	c #575757",
"}	c #7B7B7B",
"|	c #A3A3A3",
"1	c #BFBFBF",
"2	c #C8C8C8",
"3	c #434343",
"4	c #5A5A5A",
"5	c #858585",
"6	c #FFFFFF",
"......+++++.......",
"....+@@###@@+.....",
"...+@$$$%$$$@+....",
"..+#$%&*=*&%$#+...",
".+@$-=;>,>;=-$@+..",
".@$%=')!~!){]%$@..",
"+@$&^/(_:_(/^&$@+.",
"+#$<[}|121|}[<$#+.",
"+#%34566666543%#+.",
"+#$<[}|121|}[<$#+.",
"+@$&^/(_:_(/^&$@+.",
".@$%=')!~!)'=%$@..",
".+@$-=;>,>;=-$@+..",
"..+#$%&*=*&%$#+...",
"...+@$$$%$$$@+....",
"....+@@###@@+.....",
"......+++++.......",
".................."};
