/* XPM */
static char * rhalfpr_xpm[] = {
"18 18 27 1",
" 	c None",
".	c #313131",
"+	c #383838",
"@	c #3F3F3F",
"#	c #444444",
"$	c #474747",
"%	c #575757",
"&	c #606060",
"*	c #646464",
"=	c #5C5C5C",
"-	c #4D4D4D",
";	c #727272",
">	c #818181",
",	c #797979",
"'	c #696969",
")	c #858585",
"!	c #FFFFFF",
"~	c #9C9C9C",
"{	c #919191",
"]	c #525252",
"^	c #A6A6A6",
"/	c #A4A4A4",
"(	c #8C8C8C",
"_	c #767676",
":	c #959595",
"<	c #ABABAB",
"[	c #B3B3B3",
"..................",
"..................",
"........++++......",
"......+@#$$#@+....",
"......@$%&*=-@+...",
".....+$=;>>,*-@...",
".....+-')!~{,&$+..",
".....@];{^!/('-+..",
".....@]_:<[!{;]@..",
".....@];{^!/('-+..",
".....+-')!~{,&$+..",
".....+$=;>>,*-@...",
"......@$%&*=-@+...",
"......+@#$$#@+....",
"........++++......",
"..................",
"..................",
".................."};
