/* XPM */
static char * shadepr_xpm[] = {
"18 18 50 1",
" 	c None",
".	c #262626",
"+	c #272727",
"@	c #282828",
"#	c #292929",
"$	c #2A2A2A",
"%	c #2B2B2B",
"&	c #2C2C2C",
"*	c #2D2D2D",
"=	c #313131",
"-	c #333333",
";	c #363636",
">	c #303030",
",	c #3C3C3C",
"'	c #434343",
")	c #464646",
"!	c #424242",
"~	c #565656",
"{	c #646464",
"]	c #696969",
"^	c #626262",
"/	c #535353",
"(	c #404040",
"_	c #3D3D3D",
":	c #575757",
"<	c #777777",
"[	c #919191",
"}	c #989898",
"|	c #8C8C8C",
"1	c #707070",
"2	c #484848",
"3	c #6C6C6C",
"4	c #B8B8B8",
"5	c #BFBFBF",
"6	c #B0B0B0",
"7	c #8B8B8B",
"8	c #4D4D4D",
"9	c #787878",
"0	c #A9A9A9",
"a	c #FFFFFF",
"b	c #4A4A4A",
"c	c #737373",
"d	c #A3A3A3",
"e	c #414141",
"f	c #606060",
"g	c #878787",
"h	c #A4A4A4",
"i	c #999999",
"j	c #383838",
"k	c #474747",
".....+@@###@@+....",
"....+@$%&*&%$@+...",
"...+#$*=-;-=*$#+..",
"..+@$>;,')',;>$@+.",
"..@$*;!~{]^/(;*$@.",
".+@%=_:<[}|1/,=%@+",
".+#&-23}4567^'-&#+",
".+#*;890aa5}]);*#+",
".+#&-bcdaa4[{'-&#+",
".+@%=efgh0i<~,=%@+",
"..@$*jkfc93:!;*$@.",
"..+@$>jeb82_;>$@+.",
"...+#$*=-;-=*$#+..",
"....+@$%&*&%$@+...",
".....+@@###@@+....",
".......+++++......",
"..................",
".................."};
