/* XPM */
static char * stickpr_xpm[] = {
"18 18 12 1",
" 	c None",
".	c #313131",
"+	c #FFFFFF",
"@	c #8E8E8E",
"#	c #CACACA",
"$	c #D8D8D8",
"%	c #C5C5C5",
"&	c #F4F4F4",
"*	c #FBFBFB",
"=	c #D0D0D0",
"-	c #F9F9F9",
";	c #333333",
"..................",
"..................",
"..................",
"..................",
"..................",
"..................",
".....+++++++......",
".....+@#$#@+......",
".....+%&*&%+......",
".....+=-+-=+......",
".....+@#$#@+......",
".....+++++++......",
"........;.........",
"..................",
"..................",
"..................",
"..................",
".................."};
