/* XPM */
static char * stickfcs_xpm[] = {
"18 18 3 1",
" 	c None",
".	c #313131",
"+	c #FFFFFF",
"..................",
"..................",
"..................",
"..................",
"..................",
"..................",
".....+++++++......",
".....+.....+......",
".....+.....+......",
".....+.....+......",
".....+.....+......",
".....+++++++......",
"..................",
"..................",
"..................",
"..................",
"..................",
".................."};
