/* XPM */
static char * stickufcs_xpm[] = {
"18 18 4 1",
" 	c None",
".	c #262626",
"+	c #9D9D9D",
"@	c #9A9A9A",
"..................",
"..................",
"..................",
"..................",
"..................",
"..................",
".....+++++++......",
".....+.....+......",
".....+.....+......",
".....+.....+......",
".....+.....+......",
".....+++++@+......",
"..................",
"..................",
"..................",
"..................",
"..................",
".................."};
