/* XPM */
static char * stuckufcs_xpm[] = {
"18 18 11 1",
" 	c None",
".	c #262626",
"+	c #FFFFFF",
"@	c #BCBCBC",
"#	c #C2C2C2",
"$	c #C5C5C5",
"%	c #B8B8B8",
"&	c #C0C0C0",
"*	c #CBCBCB",
"=	c #C1C1C1",
"-	c #BABABA",
"..................",
"..................",
"..................",
"..................",
"..................",
"..................",
".....+++++++......",
".....+@#$#@+......",
".....+%&*&%+......",
".....+%&*=%+......",
".....+@#$#-+......",
".....+++++++......",
"..................",
"..................",
"..................",
"..................",
"..................",
".................."};
