/* XPM */
static char * stuckfcs_xpm[] = {
"18 18 21 1",
" 	c None",
".	c #313131",
"+	c #333333",
"@	c #373737",
"#	c #393939",
"$	c #3D3D3D",
"%	c #3B3B3B",
"&	c #444444",
"*	c #4F4F4F",
"=	c #575757",
"-	c #585858",
";	c #4A4A4A",
">	c #FFFFFF",
",	c #434343",
"'	c #5C5C5C",
")	c #5E5E5E",
"!	c #383838",
"~	c #6A6A6A",
"{	c #FCFCFC",
"]	c #494949",
"^	c #595959",
"..................",
"..................",
"..................",
".......+++........",
"....+@#$$$#@+.....",
"...+%&*=-=*&%+....",
"..+%;>>>>>>>;%+...",
"..@,'>>>>>>>)&@...",
"..!;~>>>>>>>~;!...",
"..!;~>>>>>>>~;!...",
"..@,'>>>>>{>',@...",
"..+%;>>>>>>>]#+...",
"...+%&*=^=*&%+....",
"....+@#$$$#@+.....",
".......+++........",
"..................",
"..................",
".................."};
