/* XPM */
static char * unshadepr_xpm[] = {
"18 18 49 1",
" 	c None",
".	c #313131",
"+	c #323232",
"@	c #333333",
"#	c #343434",
"$	c #353535",
"%	c #373737",
"&	c #383838",
"*	c #3B3B3B",
"=	c #3D3D3D",
"-	c #404040",
";	c #3A3A3A",
">	c #464646",
",	c #4D4D4D",
"'	c #4F4F4F",
")	c #4A4A4A",
"!	c #5B5B5B",
"~	c #6A6A6A",
"{	c #707070",
"]	c #6B6B6B",
"^	c #5F5F5F",
"/	c #4C4C4C",
"(	c #777777",
"_	c #919191",
":	c #9D9D9D",
"<	c #979797",
"[	c #7E7E7E",
"}	c #474747",
"|	c #B4B4B4",
"1	c #C3C3C3",
"2	c #BCBCBC",
"3	c #9E9E9E",
"4	c #737373",
"5	c #525252",
"6	c #FFFFFF",
"7	c #AEAEAE",
"8	c #7F7F7F",
"9	c #555555",
"0	c #969696",
"a	c #A9A9A9",
"b	c #7A7A7A",
"c	c #535353",
"d	c #ADADAD",
"e	c #A8A8A8",
"f	c #8D8D8D",
"g	c #686868",
"h	c #4B4B4B",
"i	c #505050",
"j	c #424242",
"......+++++.......",
"....+@@###@@+.....",
"...+@$$%&%$$@+....",
"..+#$&*=-=*&$#+...",
".+@$;->,',>-;$@+..",
".@$&-)!~{]^/-&$@..",
"+@$*>!(_:<[^}*$@+.",
"+#%=,~_|12345=%#+.",
"+#&-'{:166789-&#+.",
"+#%=,]0266abc=%#+.",
"+@$*>^[3defgh*$@+.",
".@$&-h^48bgij&$@..",
".+@$;-}59chj;$@+..",
"..+#$&*=-=*&$#+...",
"...+@$$%&%$$@+....",
"....+@@###@@+.....",
"......+++++.......",
".................."};
