/* XPM */
static char * bar1_xpm[] = {
"16 16 20 1",
" 	c #D5D5D5",
".	c #FFFFFF",
"+	c #FDFDFD",
"@	c #FCFCFC",
"#	c #FBFBFB",
"$	c #FAFAFA",
"%	c #F9F9F9",
"&	c #F8F8F8",
"*	c #F0F0F0",
"=	c #F1F1F1",
"-	c #F2F2F2",
";	c #E2E2E2",
">	c #D4D4D4",
",	c #CBCBCB",
"'	c #DFDFDF",
")	c #E0E0E0",
"!	c #E1E1E1",
"~	c #C3C3C3",
"{	c #C4C4C4",
"]	c #C5C5C5",
"                ",
"................",
"++++++++++++++++",
"@@@@@@@@@@@@@@@@",
"################",
"$$$$$$$$$$$$$$$$",
"%%%%%%%%%%%%%%%%",
"&&&&&&&&&&&&&&&&",
"*=--**--=**--**=",
";;;;;;;;;;;;;;;;",
">>>>>>>>>>>>>>>>",
",,,,,,,,,,,,,,,,",
"'))'''))'')!''')",
"@@@@@@@@@@@@@@@@",
"++++++++++++++++",
"~~{]~~~{{~~~]~~~"};
