/* XPM */
static char * bar2_xpm[] = {
"16 16 72 1",
" 	c #9EB281",
".	c #CFFF85",
"+	c #CEFF85",
"@	c #CEFF84",
"#	c #CFFF84",
"$	c #C9FB80",
"%	c #CAFB80",
"&	c #C9FB7F",
"*	c #CAFB7F",
"=	c #C4F679",
"-	c #C4F67A",
";	c #C3F67A",
">	c #C3F679",
",	c #BDF173",
"'	c #BDF174",
")	c #BEF174",
"!	c #BEF173",
"~	c #B8EB6E",
"{	c #B7EB6E",
"]	c #B7EB6D",
"^	c #B8EB6D",
"/	c #9CCF51",
"(	c #9BCF51",
"_	c #9CCF52",
":	c #9BCF52",
"<	c #78AC2E",
"[	c #79AC2F",
"}	c #78AC2F",
"|	c #7AAE30",
"1	c #7BAE30",
"2	c #7AAE31",
"3	c #79AC2E",
"4	c #7BAE31",
"5	c #679A1D",
"6	c #64981A",
"7	c #64981B",
"8	c #65981B",
"9	c #669A1C",
"0	c #669A1D",
"a	c #679A1C",
"b	c #568A0C",
"c	c #568A0D",
"d	c #578A0C",
"e	c #578A0D",
"f	c #497C01",
"g	c #497C00",
"h	c #487C00",
"i	c #467A00",
"j	c #487C01",
"k	c #407300",
"l	c #3F7300",
"m	c #55890B",
"n	c #54870A",
"o	c #538709",
"p	c #55890C",
"q	c #56890C",
"r	c #548709",
"s	c #53870A",
"t	c #71A426",
"u	c #71A527",
"v	c #71A528",
"w	c #72A527",
"x	c #72A528",
"y	c #70A427",
"z	c #A0D355",
"A	c #9FD355",
"B	c #A0D356",
"C	c #9FD356",
"D	c #386B00",
"E	c #396D00",
"F	c #3A6D00",
"G	c #376B00",
"                ",
".+++@..##+...#+@",
"$%$%%$$$&%$$%$$*",
"=--;->--;>-;>=-;",
",',))!)',,)')!''",
"~~~{]~]~^]^{{~{{",
"/(//__(:(_::__(_",
"<[}||<}1<[2[234<",
"5565768907509a50",
"bcccbdbedbcbebcd",
"fghiifhjfjfjgihj",
"kkllkklkllkkkkll",
"mnopqqrpopmpqqsm",
"tuvvvvvwtuuxyxvv",
"zABCACzBCCzBzzzB",
"DEDFFGDGDEGDEFGG"};
