/* XPM */
static char * close2_xpm[] = {
"16 16 102 2",
"  	c #9EB281",
". 	c #B3D483",
"+ 	c #CEFF84",
"@ 	c #CEFF85",
"# 	c #CFFF84",
"$ 	c #C4F084",
"% 	c #CAFB80",
"& 	c #C9FB7F",
"* 	c #CAFB7F",
"= 	c #C9FB80",
"- 	c #BEEB7F",
"; 	c #C3F679",
"> 	c #C3F67A",
", 	c #C4F679",
"' 	c #C4F67A",
") 	c #B9E578",
"! 	c #BEF173",
"~ 	c #BEF174",
"{ 	c #FFFFFF",
"] 	c #BDF173",
"^ 	c #BDF174",
"/ 	c #B2DF72",
"( 	c #B8EB6D",
"_ 	c #B7EB6E",
": 	c #89B051",
"< 	c #B7EB6D",
"[ 	c #B8EB6E",
"} 	c #89B052",
"| 	c #ACD96C",
"1 	c #9BCF52",
"2 	c #9BCF51",
"3 	c #9CCF52",
"4 	c #9CCF51",
"5 	c #88B648",
"6 	c #5A782F",
"7 	c #59782F",
"8 	c #90BD51",
"9 	c #7AAE30",
"0 	c #79AC2E",
"a 	c #78AC2F",
"b 	c #689629",
"c 	c #44611B",
"d 	c #446119",
"e 	c #6A9829",
"f 	c #7BAE31",
"g 	c #7AAE31",
"h 	c #6F9C30",
"i 	c #669A1D",
"j 	c #64981A",
"k 	c #679A1D",
"l 	c #65981A",
"m 	c #64981B",
"n 	c #548016",
"o 	c #548015",
"p 	c #65981B",
"q 	c #59861A",
"r 	c #568A0C",
"s 	c #578A0D",
"t 	c #568A0D",
"u 	c #578A0C",
"v 	c #284006",
"w 	c #4C780C",
"x 	c #487C01",
"y 	c #497C00",
"z 	c #467A01",
"A 	c #274200",
"B 	c #345A00",
"C 	c #264200",
"D 	c #487C00",
"E 	c #3D6A00",
"F 	c #407300",
"G 	c #3F7300",
"H 	c #244200",
"I 	c #376400",
"J 	c #346100",
"K 	c #56890C",
"L 	c #538709",
"M 	c #53870A",
"N 	c #55890B",
"O 	c #3F6608",
"P 	c #345406",
"Q 	c #497608",
"R 	c #55890C",
"S 	c #4A7709",
"T 	c #345306",
"U 	c #3E6506",
"V 	c #4A770B",
"W 	c #71A528",
"X 	c #70A426",
"Y 	c #71A527",
"Z 	c #70A427",
"` 	c #659226",
" .	c #A0D356",
"..	c #9FD355",
"+.	c #A0D355",
"@.	c #9FD356",
"#.	c #95C155",
"$.	c #396D00",
"%.	c #376B00",
"&.	c #3A6D00",
"*.	c #386B00",
"=.	c #2C5900",
"                              . ",
"+ @ + @ # @ # @ + @ + @ + + @ $ ",
"% & * % = & & % * = = = & = = - ",
"; > , ; ; , ' , > , > ; ; > > ) ",
"! ~ ~ ~ { { ] ] ^ ~ ^ { { ^ ~ / ",
"( _ _ ( : { { < [ _ { { } < < | ",
"1 2 3 4 5 6 { { 3 { { 7 5 4 2 8 ",
"9 9 0 9 a b c { { { d e a f g h ",
"i j k l j m n { { { o i m p m q ",
"r s t s u s { { v { { s t s t w ",
"x y z x z { { A B C { { x D x E ",
"F G F F { { H I G I H { { F F J ",
"K L M N O P Q K R M S T U N R V ",
"W W X Y X W Y Z W W W Z W X Z ` ",
" . . . ... .+...@. ...@.@.@.@.#.",
"$.$.%.%.&.%.$.*.$.$.*.%.*.&.&.=."};
