/* XPM */
static char * close2a_xpm[] = {
"16 16 105 2",
"  	c #9EB281",
". 	c #B3D482",
"+ 	c #CEFF84",
"@ 	c #CFFF85",
"# 	c #CEFF85",
"$ 	c #CFFF84",
"% 	c #C4F083",
"& 	c #CAFB80",
"* 	c #CAFB7F",
"= 	c #C9FB7F",
"- 	c #C9FB80",
"; 	c #BEEB7F",
"> 	c #C4F67A",
", 	c #C3F67A",
"' 	c #C3F679",
") 	c #B8E579",
"! 	c #BDF174",
"~ 	c #BEF173",
"{ 	c #BEF174",
"] 	c #BDF173",
"^ 	c #B3DF73",
"/ 	c #B7EB6E",
"( 	c #B8EB6E",
"_ 	c #FFFFFF",
": 	c #B8EB6D",
"< 	c #B7EB6D",
"[ 	c #ACD96C",
"} 	c #9CCF51",
"| 	c #9BCF52",
"1 	c #749B3C",
"2 	c #9BCF51",
"3 	c #9CCF52",
"4 	c #749B3D",
"5 	c #90BD51",
"6 	c #7AAE30",
"7 	c #7BAE30",
"8 	c #79AC2F",
"9 	c #7AAE31",
"0 	c #699728",
"a 	c #46631B",
"b 	c #46641C",
"c 	c #7BAE31",
"d 	c #709C30",
"e 	c #679A1C",
"f 	c #64981B",
"g 	c #669A1D",
"h 	c #578416",
"i 	c #38550F",
"j 	c #39550E",
"k 	c #598618",
"l 	c #65981A",
"m 	c #65981B",
"n 	c #59861A",
"o 	c #578A0C",
"p 	c #568A0D",
"q 	c #578A0D",
"r 	c #48740A",
"s 	c #568A0C",
"t 	c #4B780C",
"u 	c #487C01",
"v 	c #497C01",
"w 	c #467A01",
"x 	c #477A01",
"y 	c #467A00",
"z 	c #223A00",
"A 	c #487C00",
"B 	c #3E6A00",
"C 	c #407300",
"D 	c #3F7300",
"E 	c #223D00",
"F 	c #2E5400",
"G 	c #213D00",
"H 	c #356100",
"I 	c #55890C",
"J 	c #538709",
"K 	c #54870A",
"L 	c #2F4D05",
"M 	c #4A770A",
"N 	c #487608",
"O 	c #314E06",
"P 	c #56890C",
"Q 	c #4B770B",
"R 	c #71A527",
"S 	c #72A528",
"T 	c #71A427",
"U 	c #547A1D",
"V 	c #466618",
"W 	c #629022",
"X 	c #70A427",
"Y 	c #71A528",
"Z 	c #456517",
"` 	c #547B1D",
" .	c #70A426",
"..	c #71A426",
"+.	c #659225",
"@.	c #A0D355",
"#.	c #A0D356",
"$.	c #9FD355",
"%.	c #9FD356",
"&.	c #94C155",
"*.	c #3A6D00",
"=.	c #396D00",
"-.	c #386B00",
";.	c #376B00",
">.	c #2C5900",
"                              . ",
"+ @ # + @ @ # $ + @ @ @ @ # # % ",
"& * = - & * - & - * & - = - - ; ",
"> , , > > ' ' > , > > , , ' , ) ",
"! ~ { ! ! ! { ! { ~ ] ] ! ! ] ^ ",
"/ / ( / _ _ / / : / : _ _ < : [ ",
"} | } } 1 _ _ 2 | 3 _ _ 4 3 } 5 ",
"6 7 8 9 0 a _ _ 8 _ _ b 0 6 c d ",
"e f g f f h i _ _ _ j k l m m n ",
"o p p p q o r _ _ _ r p s p o t ",
"u v w u x y _ _ z _ _ x u u A B ",
"C D D D C _ _ E F G _ _ D D D H ",
"I J K I _ _ L M I N O _ _ P I Q ",
"R S T R U V W X Y Y W Z `  ...+.",
"@.@.#.$.%.%.@.#.$.%.%.%.%.%.%.&.",
"*.=.-.-.=.-.=.;.*.*.-.-.-.=.=.>."};
