/* XPM */
static char * close1_xpm[] = {
"16 16 50 1",
" 	c #D7D7D7",
".	c #FFFFFF",
"+	c #FEFEFE",
"@	c #FDFDFD",
"#	c #FAFAFA",
"$	c #FCFCFC",
"%	c #FBFBFB",
"&	c #090909",
"*	c #0A0A0A",
"=	c #F8F8F8",
"-	c #BCBCBC",
";	c #070707",
">	c #060606",
",	c #F6F6F6",
"'	c #DCDCDC",
")	c #919191",
"!	c #080808",
"~	c #F4F4F4",
"{	c #F9F9F9",
"]	c #D9D9D9",
"^	c #8C8C8C",
"/	c #ECECEC",
"(	c #CFCFCF",
"_	c #D6D6D6",
":	c #E8E8E8",
"<	c #000000",
"[	c #6D6D6D",
"}	c #C8C8C8",
"|	c #DADADA",
"1	c #D8D8D8",
"2	c #202020",
"3	c #757575",
"4	c #9F9F9F",
"5	c #BABABA",
"6	c #D1D1D1",
"7	c #787878",
"8	c #B6B6B6",
"9	c #B1B1B1",
"0	c #E7E7E7",
"a	c #E5E5E5",
"b	c #ADADAD",
"c	c #8F8F8F",
"d	c #CACACA",
"e	c #8D8D8D",
"f	c #ABABAB",
"g	c #C7C7C7",
"h	c #E2E2E2",
"i	c #CBCBCB",
"j	c #C9C9C9",
"k	c #A9A9A9",
"               .",
"................",
"+++++++++++++++@",
"@@@@@@@@@@@@@@@#",
"$%%%&*%%%%%**%%=",
"%%%%-;>%%%;;-%%,",
"####')!!#!;)'##~",
"{{{{{]^;!!^]{{{/",
"=,=,,,(>>>(=,,,_",
"::::::<<[<<::::}",
"||1|12234322|||5",
"6666<<78687<<669",
"0aa0bc}00adef00g",
"$$$$$$$$$$$$$$$h",
"@@@@@@@@@@@@@@@$",
"iijjijijiijjjiik"};
