/* XPM */
static char * max1_xpm[] = {
"16 16 41 1",
" 	c #D7D7D7",
".	c #FFFFFF",
"+	c #FEFEFE",
"@	c #FDFDFD",
"#	c #FBFBFB",
"$	c #FCFCFC",
"%	c #0A0A0A",
"&	c #090909",
"*	c #FAFAFA",
"=	c #070707",
"-	c #060606",
";	c #F9F9F9",
">	c #7B7B7B",
",	c #787878",
"'	c #767676",
")	c #757575",
"!	c #080808",
"~	c #F7F7F7",
"{	c #CFCFCF",
"]	c #DEDEDE",
"^	c #F6F6F6",
"/	c #F4F4F4",
"(	c #050505",
"_	c #E1E1E1",
":	c #F8F8F8",
"<	c #E8E8E8",
"[	c #E6E6E6",
"}	c #000000",
"|	c #D3D3D3",
"1	c #DADADA",
"2	c #D8D8D8",
"3	c #202020",
"4	c #1F1F1F",
"5	c #D1D1D1",
"6	c #D0D0D0",
"7	c #E5E5E5",
"8	c #E7E7E7",
"9	c #858585",
"0	c #777777",
"a	c #CBCBCB",
"b	c #C9C9C9",
"                ",
"................",
"++++++++++++++++",
"@@@@@@@@@@@@@@@@",
"#$#$%%&%%&%%%#$$",
"###*=--=-=-==*##",
"***;=>,')',>!;**",
";;;~!{]]]]]{!~;;",
"^^^/(_:::::_-^::",
"<<<[}|<<<<<|}[<<",
"1122333334333211",
"5556}}}}}}}}}655",
"778[9>0')',>9[88",
"$$$$#*:~^~:*#$$$",
"@@@@@@@@@@@@@@@@",
"ababbaabbbbaabaa"};
