/* XPM */
static char * max2a_xpm[] = {
"16 16 100 2",
"  	c #9EB281",
". 	c #CFFF85",
"+ 	c #CFFF84",
"@ 	c #CEFF84",
"# 	c #CEFF85",
"$ 	c #C9FB80",
"% 	c #C9FB7F",
"& 	c #CAFB80",
"* 	c #CAFB7F",
"= 	c #C3F67A",
"- 	c #C4F679",
"; 	c #C4F67A",
"> 	c #C3F679",
", 	c #BEF174",
"' 	c #BDF174",
") 	c #BDF173",
"! 	c #BEF173",
"~ 	c #B7EB6E",
"{ 	c #B8EB6E",
"] 	c #FFFFFF",
"^ 	c #B8EB6D",
"/ 	c #9BCF52",
"( 	c #9BCF51",
"_ 	c #9ACE51",
": 	c #9BCE50",
"< 	c #9CCF52",
"[ 	c #78AC2F",
"} 	c #79AD2F",
"| 	c #7AAE31",
"1 	c #7AAD30",
"2 	c #3B5517",
"3 	c #395216",
"4 	c #385116",
"5 	c #385016",
"6 	c #3A5217",
"7 	c #3A5317",
"8 	c #3C5518",
"9 	c #7AAE30",
"0 	c #65981A",
"a 	c #64981B",
"b 	c #63961A",
"c 	c #548018",
"d 	c #5B8919",
"e 	c #5C8919",
"f 	c #548017",
"g 	c #65981C",
"h 	c #669A1D",
"i 	c #578A0D",
"j 	c #56880C",
"k 	c #4E7D0A",
"l 	c #568A0D",
"m 	c #568A0C",
"n 	c #55880C",
"o 	c #578A0C",
"p 	c #487C00",
"q 	c #497C00",
"r 	c #477A00",
"s 	c #477B00",
"t 	c #3F6E00",
"u 	c #487C01",
"v 	c #497C01",
"w 	c #467A01",
"x 	c #417000",
"y 	c #3F7300",
"z 	c #3E7200",
"A 	c #3F7200",
"B 	c #538709",
"C 	c #54870A",
"D 	c #55890C",
"E 	c #54880A",
"F 	c #55880B",
"G 	c #55890B",
"H 	c #56890C",
"I 	c #71A528",
"J 	c #71A426",
"K 	c #70A426",
"L 	c #426017",
"M 	c #3C5714",
"N 	c #3A5614",
"O 	c #3A5414",
"P 	c #395313",
"Q 	c #3C5814",
"R 	c #6FA326",
"S 	c #72A527",
"T 	c #72A528",
"U 	c #A0D356",
"V 	c #9FD356",
"W 	c #9ED255",
"X 	c #9ED154",
"Y 	c #9CCF54",
"Z 	c #9CCE53",
"` 	c #9BCE53",
" .	c #9BCE54",
"..	c #9DCF54",
"+.	c #9FD254",
"@.	c #A0D355",
"#.	c #3A6D00",
"$.	c #386B00",
"%.	c #376B00",
"&.	c #396D00",
"                                ",
". + @ # # # @ # # + . . # # # # ",
"$ $ % & % $ $ & $ $ & * % $ % * ",
"= = - ; = = > ; > ; - > = > - > ",
", , ' ' ' , ' ) ' ) ' ! ' ' , ' ",
"~ ~ { { ] ] ] ] ] ] ] ] ] ~ ^ ~ ",
"/ ( / _ ] ] ] ] ] ] ] ] ] : / < ",
"[ } | 1 ] 2 3 4 5 6 7 8 ] } 9 9 ",
"0 a a b ] c d d e e d f ] g h h ",
"i i i j ] k l m m i l k ] n o l ",
"p q r s ] t u u v w p x ] s v v ",
"y y y z ] ] ] ] ] ] ] ] ] A y y ",
"B C D E ] ] ] ] ] ] ] ] ] F G H ",
"I I J K L M N O P O N Q L R S T ",
"U V V V W X Y Z `  ...X +.@.V U ",
"#.$.#.%.%.#.&.$.%.%.%.#.&.%.&.#."};
