/* XPM */
static char * max2_xpm[] = {
"16 16 102 2",
"  	c #9EB281",
". 	c #CEFF85",
"+ 	c #CFFF85",
"@ 	c #CEFF84",
"# 	c #CFFF84",
"$ 	c #C9FB7F",
"% 	c #C9FB80",
"& 	c #CAFB80",
"* 	c #CAFB7F",
"= 	c #C4F67A",
"- 	c #C3F67A",
"; 	c #C4F679",
"> 	c #C3F679",
", 	c #BDF173",
"' 	c #BEF173",
") 	c #FFFFFF",
"! 	c #BEF174",
"~ 	c #B7EB6E",
"{ 	c #B7EB6D",
"] 	c #B8EB6E",
"^ 	c #B6EA6D",
"/ 	c #B7EA6D",
"( 	c #9CCF51",
"_ 	c #9BCF51",
": 	c #9BCF52",
"< 	c #9ACE51",
"[ 	c #4D6628",
"} 	c #4B6327",
"| 	c #496226",
"1 	c #486126",
"2 	c #78AC2F",
"3 	c #7AAD30",
"4 	c #7AAE31",
"5 	c #7AAC30",
"6 	c #648F27",
"7 	c #6B992A",
"8 	c #6C992A",
"9 	c #6D9B2A",
"0 	c #6D9B2B",
"a 	c #659028",
"b 	c #79AC30",
"c 	c #7AAE30",
"d 	c #64981B",
"e 	c #64981A",
"f 	c #65981B",
"g 	c #639619",
"h 	c #5D8C1A",
"i 	c #679A1D",
"j 	c #669A1C",
"k 	c #669A1D",
"l 	c #5D8C19",
"m 	c #578A0C",
"n 	c #578A0D",
"o 	c #56880C",
"p 	c #4E7D0B",
"q 	c #568A0D",
"r 	c #568A0C",
"s 	c #4F7D0B",
"t 	c #56880B",
"u 	c #487C01",
"v 	c #497C00",
"w 	c #467A00",
"x 	c #477B00",
"y 	c #497C01",
"z 	c #407300",
"A 	c #3F7300",
"B 	c #3E7200",
"C 	c #53870A",
"D 	c #538709",
"E 	c #55890C",
"F 	c #54880B",
"G 	c #314E05",
"H 	c #2D4906",
"I 	c #2B4605",
"J 	c #2B4506",
"K 	c #2B4606",
"L 	c #2C4705",
"M 	c #2D4905",
"N 	c #304E05",
"O 	c #54880A",
"P 	c #55890B",
"Q 	c #71A528",
"R 	c #72A528",
"S 	c #70A427",
"T 	c #71A527",
"U 	c #71A426",
"V 	c #70A226",
"W 	c #6FA227",
"X 	c #6EA127",
"Y 	c #6EA025",
"Z 	c #6FA127",
"` 	c #70A227",
" .	c #71A327",
"..	c #71A427",
"+.	c #A0D356",
"@.	c #9FD355",
"#.	c #9FD356",
"$.	c #A0D355",
"%.	c #3A6D00",
"&.	c #376B00",
"*.	c #396D00",
"=.	c #386B00",
"                                ",
". + + . + . + @ . . @ # . + . . ",
"$ % & $ $ % % % $ & & $ * % % & ",
"= - - = = ; > ; > - > > - > - - ",
", , ' , ) ) ) ) ) ) ) ) ) ' ' ! ",
"~ { ] ^ ) ) ) ) ) ) ) ) ) / ] { ",
"( _ : < ) [ } | 1 | } [ ) < _ ( ",
"2 3 4 5 ) 6 7 7 8 9 0 a ) b c 4 ",
"d e f g ) h i j j i k l ) f j k ",
"m n m o ) p q r q r n s ) t n n ",
"u v w x ) ) ) ) ) ) ) ) ) x y u ",
"z A A B ) ) ) ) ) ) ) ) ) B A A ",
"C D E F G H I I J K L M N O P E ",
"Q R S T U V W X Y Z `  ...S T T ",
"+.+.+.@.#.#.+.+.@.$.+.@.#.#.#.+.",
"%.&.*.=.=.%.*.&.=.&.&.*.%.=.*.%."};
