/* XPM */
static char * min1_xpm[] = {
"16 16 28 1",
" 	c #D7D7D7",
".	c #FFFFFF",
"+	c #FEFEFE",
"@	c #FDFDFD",
"#	c #FBFBFB",
"$	c #FCFCFC",
"%	c #FAFAFA",
"&	c #F9F9F9",
"*	c #F8F8F8",
"=	c #F6F6F6",
"-	c #E8E8E8",
";	c #DADADA",
">	c #D8D8D8",
",	c #202020",
"'	c #1F1F1F",
")	c #D1D1D1",
"!	c #000000",
"~	c #E7E7E7",
"{	c #E5E5E5",
"]	c #8F8F8F",
"^	c #7E7E7E",
"/	c #7B7B7B",
"(	c #7A7A7A",
"_	c #787878",
":	c #7C7C7C",
"<	c #F7F7F7",
"[	c #C9C9C9",
"}	c #CBCBCB",
"                ",
"................",
"++++++++++++++++",
"@@@@@@@@@@@@@@@@",
"#$$$#$$###$##$##",
"################",
"%%%%%%%%%%%%%%%%",
"&&&&&&&&&&&&&&&&",
"**=*===**=******",
"----------------",
";;;>,,,,,,,',>;;",
"))))!!!!!!!!!)))",
"~{{~]^/(_(:^]~{~",
"$$$$#%*<=<*%#$$$",
"@@@@@@@@@@@@@@@@",
"[}[}}[[[[}[[}}[["};
