/* XPM */
static char * min2_xpm[] = {
"16 16 86 1",
" 	c #9EB281",
".	c #CFFF85",
"+	c #CEFF85",
"@	c #CEFF84",
"#	c #CFFF84",
"$	c #C9FB80",
"%	c #CAFB80",
"&	c #C9FB7F",
"*	c #CAFB7F",
"=	c #C4F679",
"-	c #C4F67A",
";	c #C3F67A",
">	c #C3F679",
",	c #BDF173",
"'	c #BDF174",
")	c #BEF174",
"!	c #BEF173",
"~	c #B8EB6E",
"{	c #B7EB6E",
"]	c #B7EB6D",
"^	c #B8EB6D",
"/	c #9CCF51",
"(	c #9BCF51",
"_	c #9CCF52",
":	c #9BCF52",
"<	c #78AC2E",
"[	c #79AC2F",
"}	c #78AC2F",
"|	c #7AAE30",
"1	c #7BAE30",
"2	c #7AAE31",
"3	c #79AC2E",
"4	c #7BAE31",
"5	c #679A1D",
"6	c #64981A",
"7	c #64981B",
"8	c #65981B",
"9	c #669A1C",
"0	c #669A1D",
"a	c #679A1C",
"b	c #568A0C",
"c	c #568A0D",
"d	c #578A0C",
"e	c #578A0D",
"f	c #497C01",
"g	c #497C00",
"h	c #487C00",
"i	c #467A00",
"j	c #FFFFFF",
"k	c #487C01",
"l	c #407300",
"m	c #3F7300",
"n	c #55890B",
"o	c #54870A",
"p	c #538709",
"q	c #55890C",
"r	c #355407",
"s	c #2F4B06",
"t	c #2D4804",
"u	c #2D4806",
"v	c #2B4604",
"w	c #2D4905",
"x	c #2E4B06",
"y	c #56890C",
"z	c #53870A",
"A	c #71A426",
"B	c #71A527",
"C	c #71A528",
"D	c #70A427",
"E	c #70A327",
"F	c #6FA227",
"G	c #6FA126",
"H	c #6EA025",
"I	c #6EA126",
"J	c #6FA226",
"K	c #71A327",
"L	c #6FA326",
"M	c #72A528",
"N	c #A0D355",
"O	c #9FD355",
"P	c #A0D356",
"Q	c #9FD356",
"R	c #386B00",
"S	c #396D00",
"T	c #3A6D00",
"U	c #376B00",
"                ",
".+++@..##+...#+@",
"$%$%%$$$&%$$%$$*",
"=--;->--;>-;>=-;",
",',))!)',,)')!''",
"~~~{]~]~^]^{{~{{",
"/(//__(:(_::__(_",
"<[}||<}1<[2[234<",
"5565768907509a50",
"bcccbdbedbcbebcd",
"fghijjjjjjjjjihk",
"llmmjjjjjjjjjlmm",
"nopqrstuvuwxryzn",
"ABCCDEFGHIJKLMCC",
"NOPQOQNPQQNPNNNP",
"RSRTTURURSURSTUU"};
