/* XPM */
static char * min2a_xpm[] = {
"16 16 80 1",
" 	c #9EB281",
".	c #CFFF85",
"+	c #CEFF84",
"@	c #CEFF85",
"#	c #CFFF84",
"$	c #C9FB80",
"%	c #CAFB7F",
"&	c #C9FB7F",
"*	c #CAFB80",
"=	c #C3F67A",
"-	c #C4F67A",
";	c #C3F679",
">	c #C4F679",
",	c #BEF173",
"'	c #BEF174",
")	c #BDF173",
"!	c #BDF174",
"~	c #B8EB6E",
"{	c #B7EB6E",
"]	c #B8EB6D",
"^	c #B7EB6D",
"/	c #9BCF51",
"(	c #9CCF52",
"_	c #9BCF52",
":	c #78AC2F",
"<	c #78AC2E",
"[	c #7AAE31",
"}	c #7AAE30",
"|	c #79AC2F",
"1	c #7BAE30",
"2	c #7BAE31",
"3	c #669A1C",
"4	c #679A1D",
"5	c #65981B",
"6	c #669A1D",
"7	c #64981B",
"8	c #64981A",
"9	c #679A1C",
"0	c #568A0D",
"a	c #578A0C",
"b	c #568A0C",
"c	c #578A0D",
"d	c #497C01",
"e	c #487C01",
"f	c #467A01",
"g	c #467A00",
"h	c #3F7300",
"i	c #FFFFFF",
"j	c #407300",
"k	c #56890C",
"l	c #54870A",
"m	c #53870A",
"n	c #55890C",
"o	c #70A427",
"p	c #72A528",
"q	c #72A527",
"r	c #71A527",
"s	c #466618",
"t	c #3E5A15",
"u	c #3C5815",
"v	c #3C5714",
"w	c #3B5614",
"x	c #3B5714",
"y	c #3D5815",
"z	c #456518",
"A	c #71A528",
"B	c #9FD356",
"C	c #A0D355",
"D	c #A0D356",
"E	c #9ED255",
"F	c #9DD155",
"G	c #9CCF53",
"H	c #9BCE54",
"I	c #9BCE53",
"J	c #9CCE53",
"K	c #9FD254",
"L	c #386B00",
"M	c #3A6D00",
"N	c #376B00",
"O	c #396D00",
"                ",
".+.@@+@@##@#@@@@",
"$$$$%%$&&$*%$*$*",
"==-=-==;===>=---",
",,')!,!'!')!,)!!",
"~~{{{]{{]^^{^{^~",
"//(/((___(__///(",
":<<[}|<1<:2|}:[:",
"3456758448936664",
"00a0bcbccabbc0bc",
"ddeffeeeedeedgee",
"hhhhiiiiiiiiijhh",
"klmkiiiiiiiiinmn",
"opqrstuvwxytzqAA",
"BCDCEFGHIJGFKBBD",
"LMNMOLNNNMNNOMLN"};
