/* XPM */
static char * stick1_xpm[] = {
"16 16 37 1",
" 	c #FFFFFF",
".	c #D7D7D7",
"+	c #FDFDFD",
"@	c #FEFEFE",
"#	c #FAFAFA",
"$	c #F8F8F8",
"%	c #FCFCFC",
"&	c #FBFBFB",
"*	c #000000",
"=	c #F6F6F6",
"-	c #D3D3D3",
";	c #F4F4F4",
">	c #EEEEEE",
",	c #C2C2C2",
"'	c #EAEAEA",
")	c #F9F9F9",
"!	c #EDEDED",
"~	c #CFCFCF",
"{	c #D8D8D8",
"]	c #C8C8C8",
"^	c #E8E8E8",
"/	c #BABABA",
"(	c #DADADA",
"_	c #B1B1B1",
":	c #D1D1D1",
"<	c #C5C5C5",
"[	c #E5E5E5",
"}	c #E7E7E7",
"|	c #B8B8B8",
"1	c #B0B0B0",
"2	c #AFAFAF",
"3	c #AEAEAE",
"4	c #E3E3E3",
"5	c #F7F7F7",
"6	c #ABABAB",
"7	c #C9C9C9",
"8	c #CBCBCB",
" ...............",
"                ",
"+@@@@@@@@@@@@@@@",
"#+++++++++++++++",
"$%&&%%*****&%%&&",
"=&&&&&-***-&&&&&",
";#####>,*,>#####",
"'))))))!~!))))))",
"{==$$==$$==$$==$",
"]^^^^^^^^^^^^^^^",
"/(((*********(((",
"_:::*********:::",
"<[[}|122332_|[[}",
"4%%%#)$555$)#%%%",
"%+++++++++++++++",
"6777877787778777"};
