/* XPM */
static char * stick1a_xpm[] = {
"16 16 35 1",
" 	c #FFFFFF",
".	c #D7D7D7",
"+	c #FDFDFD",
"@	c #FEFEFE",
"#	c #FAFAFA",
"$	c #F8F8F8",
"%	c #FCFCFC",
"&	c #FBFBFB",
"*	c #F6F6F6",
"=	c #F4F4F4",
"-	c #EAEAEA",
";	c #F9F9F9",
">	c #000000",
",	c #D8D8D8",
"'	c #CFCFCF",
")	c #C8C8C8",
"!	c #E8E8E8",
"~	c #DDDDDD",
"{	c #B1B1B1",
"]	c #BABABA",
"^	c #DADADA",
"/	c #D1D1D1",
"(	c #C5C5C5",
"_	c #E5E5E5",
":	c #E7E7E7",
"<	c #B8B8B8",
"[	c #B0B0B0",
"}	c #AFAFAF",
"|	c #ADADAD",
"1	c #AEAEAE",
"2	c #E3E3E3",
"3	c #F7F7F7",
"4	c #ABABAB",
"5	c #C9C9C9",
"6	c #CBCBCB",
" ...............",
"                ",
"+@@@@@@@@@@@@@@@",
"#+++++++++++++++",
"$%&&%%&&%%&&%%&&",
"*&&&&&&&&&&&&&&&",
"=###############",
"-;;;;;>>>>>;;;;;",
",**$$*'>>>'$$**$",
")!!!!!~{>{~!!!!!",
"]^^^>>>>>>>>>^^^",
"{///>>>>>>>>>///",
"(__:<[}}|1}{<__:",
"2%%%#;$333$;#%%%",
"%+++++++++++++++",
"4555655565556555"};
