/* XPM */
static char * stick2a_xpm[] = {
"16 16 96 2",
"  	c #B3D482",
". 	c #9EB281",
"+ 	c #C4F083",
"@ 	c #CEFF85",
"# 	c #CFFF85",
"$ 	c #CEFF84",
"% 	c #CFFF84",
"& 	c #BEEB7F",
"* 	c #C9FB80",
"= 	c #C9FB7F",
"- 	c #CAFB80",
"; 	c #CAFB7F",
"> 	c #B8E579",
", 	c #C3F67A",
"' 	c #C3F679",
") 	c #C4F67A",
"! 	c #B3DF73",
"~ 	c #BDF173",
"{ 	c #BDF174",
"] 	c #BEF173",
"^ 	c #BEF174",
"/ 	c #ACD96C",
"( 	c #B8EB6D",
"_ 	c #B7EB6D",
": 	c #B8EB6E",
"< 	c #B7EB6E",
"[ 	c #90BD51",
"} 	c #9CCF51",
"| 	c #9CCF52",
"1 	c #9BCF52",
"2 	c #9BCF51",
"3 	c #6E9A2E",
"4 	c #79AC2F",
"5 	c #78AC2E",
"6 	c #78AC2F",
"7 	c #79AC2E",
"8 	c #FFFFFF",
"9 	c #5B881C",
"0 	c #65981B",
"a 	c #679A1C",
"b 	c #669A1C",
"c 	c #65981A",
"d 	c #548015",
"e 	c #669A1D",
"f 	c #64981B",
"g 	c #4B780C",
"h 	c #578A0C",
"i 	c #568A0D",
"j 	c #568A0C",
"k 	c #51830C",
"l 	c #426909",
"m 	c #416909",
"n 	c #52830B",
"o 	c #578A0D",
"p 	c #3E6A00",
"q 	c #487C00",
"r 	c #487C01",
"s 	c #497C01",
"t 	c #356100",
"u 	c #3F7300",
"v 	c #407300",
"w 	c #497509",
"x 	c #53870A",
"y 	c #54870A",
"z 	c #55890C",
"A 	c #426C08",
"B 	c #406707",
"C 	c #3F6707",
"D 	c #406809",
"E 	c #3E6607",
"F 	c #3F6607",
"G 	c #406706",
"H 	c #538709",
"I 	c #669326",
"J 	c #72A527",
"K 	c #71A527",
"L 	c #70A427",
"M 	c #70A326",
"N 	c #6FA327",
"O 	c #6FA227",
"P 	c #6DA026",
"Q 	c #6EA127",
"R 	c #6EA126",
"S 	c #6FA226",
"T 	c #72A528",
"U 	c #70A426",
"V 	c #94C155",
"W 	c #9FD356",
"X 	c #9FD355",
"Y 	c #A0D356",
"Z 	c #A0D355",
"` 	c #2E5B00",
" .	c #376B00",
"..	c #386B00",
"+.	c #3A6D00",
"@.	c #396D00",
"  . . . . . . . . . . . . . . . ",
"+ @ @ # # # # $ % @ # # $ @ # $ ",
"& * * = * - ; * - * ; - * = ; - ",
"> , ' , , ) ) , ) ' ' ) ) , , ) ",
"! ~ { { ~ ~ ] ^ { ^ { { { ^ ] { ",
"/ ( _ : < ( < ( < < _ < < : < < ",
"[ } | 1 1 2 | 1 2 1 1 2 } } 1 } ",
"3 4 5 5 6 7 8 8 8 8 8 5 6 4 7 5 ",
"9 0 0 a b c d 8 8 8 d e e f f a ",
"g h i j i i k l 8 m n o i i i h ",
"p q r r 8 8 8 8 8 8 8 8 8 r s r ",
"t u u u 8 8 8 8 8 8 8 8 8 u u v ",
"w x y z A B C D E F G m A y H z ",
"I J K L M N O P Q R S S M T T U ",
"V W W W W W W X Y Z W W X Y Z Z ",
"`  . ...+.......@. ... .+... ..."};
