/* XPM */
static char * stick2_xpm[] = {
"16 16 96 2",
"  	c #B3D483",
". 	c #9EB281",
"+ 	c #C4F084",
"@ 	c #CEFF85",
"# 	c #CEFF84",
"$ 	c #CFFF84",
"% 	c #BEEB7F",
"& 	c #C9FB80",
"* 	c #C9FB7F",
"= 	c #CAFB7F",
"- 	c #CAFB80",
"; 	c #B9E578",
"> 	c #C3F67A",
", 	c #C3F679",
"' 	c #C4F679",
") 	c #C4F67A",
"! 	c #B2DF72",
"~ 	c #BEF174",
"{ 	c #BDF174",
"] 	c #FFFFFF",
"^ 	c #BEF173",
"/ 	c #ACD96C",
"( 	c #B7EB6D",
"_ 	c #B8EB6E",
": 	c #B7EB6E",
"< 	c #9AC65C",
"[ 	c #B8EB6D",
"} 	c #90BD51",
"| 	c #9BCF51",
"1 	c #9CCF51",
"2 	c #9BCF52",
"3 	c #94C54D",
"4 	c #79A03F",
"5 	c #78A03E",
"6 	c #94C54E",
"7 	c #9CCF52",
"8 	c #6D9A2E",
"9 	c #78AC2F",
"0 	c #79AC2F",
"a 	c #78AC2E",
"b 	c #79AC2E",
"c 	c #72A32C",
"d 	c #648F27",
"e 	c #5B881C",
"f 	c #64981B",
"g 	c #65981B",
"h 	c #669A1D",
"i 	c #64981A",
"j 	c #679A1C",
"k 	c #669A1C",
"l 	c #4C780C",
"m 	c #568A0D",
"n 	c #578A0D",
"o 	c #568A0C",
"p 	c #578A0C",
"q 	c #3D6A00",
"r 	c #487C01",
"s 	c #487C00",
"t 	c #497C00",
"u 	c #346100",
"v 	c #407300",
"w 	c #3F7300",
"x 	c #487509",
"y 	c #53870A",
"z 	c #538709",
"A 	c #55890B",
"B 	c #436D08",
"C 	c #3F6706",
"D 	c #3F6707",
"E 	c #406809",
"F 	c #3F6607",
"G 	c #416909",
"H 	c #436D07",
"I 	c #56890C",
"J 	c #669327",
"K 	c #71A528",
"L 	c #71A527",
"M 	c #70A427",
"N 	c #70A327",
"O 	c #6FA327",
"P 	c #6FA227",
"Q 	c #6DA026",
"R 	c #6EA127",
"S 	c #6EA126",
"T 	c #6EA225",
"U 	c #70A326",
"V 	c #95C155",
"W 	c #9FD356",
"X 	c #9FD355",
"Y 	c #A0D356",
"Z 	c #A0D355",
"` 	c #2E5B00",
" .	c #386B00",
"..	c #396D00",
"+.	c #376B00",
"@.	c #3A6D00",
"  . . . . . . . . . . . . . . . ",
"+ @ # # @ # @ # @ $ @ $ @ # @ # ",
"% & & * & & & = - * * & - = * - ",
"; > > , , > ' > ' ) ' , , ' > , ",
"! ~ { ~ { { ] ] ] ] ] { ~ ~ ~ ^ ",
"/ ( ( _ _ : < ] ] ] < [ [ : : [ ",
"} | 1 2 2 2 3 4 ] 5 6 2 1 7 | 2 ",
"8 9 0 9 a b 0 c d c 9 9 a b a a ",
"e f g h h i f j j f f k j g i h ",
"l m n m n o m n m m n p n m n o ",
"q r s r ] ] ] ] ] ] ] ] ] r t r ",
"u v v w ] ] ] ] ] ] ] ] ] v w v ",
"x y z A B C D E F F C G H y z I ",
"J K L M N O P Q R S P T U L K M ",
"V W W W W X Y W X Z Y X Y Y Y Y ",
"`  . . ... .+.+.@.+.+. ...+.+.+."};
