/* XPM */
static char * close_active_xpm[] = {
"24 24 58 1",
" 	c None",
".	c #DF838A",
"+	c #DF848A",
"@	c #DF848B",
"#	c #E04D57",
"$	c #E04D58",
"%	c #E04E57",
"&	c #E0848A",
"*	c #E14D57",
"=	c #E14E58",
"-	c #E14F58",
";	c #E1868D",
">	c #E1A9AD",
",	c #E23D48",
"'	c #E23E48",
")	c #E23E49",
"!	c #E23F48",
"~	c #E23F49",
"{	c #E24049",
"]	c #E2868C",
"^	c #E2868D",
"/	c #E2878D",
"(	c #E2A8AC",
"_	c #E2E2E2",
":	c #E33E49",
"<	c #E3E3E3",
"[	c #E4E4E4",
"}	c #E5E5E5",
"|	c #E6ABB0",
"1	c #E6ACB0",
"2	c #E6D7D8",
"3	c #E6D8D9",
"4	c #E6E6E6",
"5	c #E7D8DA",
"6	c #E7E7E7",
"7	c #E8414A",
"8	c #E8424A",
"9	c #E8DADB",
"0	c #E8E8E8",
"a	c #E9E9E9",
"b	c #EAEAEA",
"c	c #EBDCDE",
"d	c #EBEBEB",
"e	c #ECDDDE",
"f	c #ECECEC",
"g	c #EDDEE0",
"h	c #EDEDED",
"i	c #EEEEEE",
"j	c #EFEFEF",
"k	c #F04D54",
"l	c #F04E54",
"m	c #F0F0F0",
"n	c #F1F1F1",
"o	c #F25056",
"p	c #F2F2F2",
"q	c #F3F3F3",
"r	c #F4F4F4",
"s	c #F5F5F5",
"qqqqqqqqqqqqqqqqqqqqqqqq",
"qqqqqqqqqqqqqqqqqqqqqqqq",
"pppppppppppppppppppppppp",
"nnnnnnnnnnnnnnnnnnnnnnnn",
"nnnnnnnnnnnnnnnnnnnnnnnn",
"mmmmmmmmg]*',=/gmmmmmmmm",
"jjjjjjj|~kooook)1jjjjjjj",
"jjjjjj|7oooooooo71jjjjjj",
"iiiiic~oooooooooo~eiiiii",
"hhhhh&kooooooooool^hhhhh",
"hhhhh*oooooooooooo-hhhhh",
"fffff:oooooooooooo!fffff",
"ddddd~oooooooooooo~ddddd",
"bbbbb#oooooooooooo%bbbbb",
"bbbbb+kooooooooook;bbbbb",
"aaaaa5)oooooooooo{9aaaaa",
"000000(7oooooooo8>000000",
"0000000(~looook{>0000000",
"666666662.$))$@366666666",
"444444444444444444444444",
"444444444444444444444444",
"}}}}}}}}}}}}}}}}}}}}}}}}",
"[[[[[[[[[[[[[[[[[[[[[[[[",
"[[[[[[[[[[[[[[[[[[[[[[[["};
