/* XPM */
static char * close_pressed_xpm[] = {
"24 24 64 1",
" 	c None",
".	c #6A131A",
"+	c #72151C",
"@	c #7B161F",
"#	c #7C171F",
"$	c #7D171F",
"%	c #CA2532",
"&	c #CB2533",
"*	c #CC2533",
"=	c #CF2634",
"-	c #D02634",
";	c #D22734",
">	c #D52735",
",	c #D52836",
"'	c #D62F3D",
")	c #D6303E",
"!	c #D6313E",
"~	c #D6323F",
"{	c #D63340",
"]	c #D84C58",
"^	c #D94C57",
"/	c #D94D58",
"(	c #DA4C57",
"_	c #DA4D58",
":	c #DA4E59",
"<	c #DE858C",
"[	c #DE868D",
"}	c #DF868D",
"|	c #E0868D",
"1	c #E0888F",
"2	c #E1888F",
"3	c #E1AAAE",
"4	c #E2888F",
"5	c #E28990",
"6	c #E2A9AD",
"7	c #E2E2E2",
"8	c #E3E3E3",
"9	c #E4E4E4",
"0	c #E5E5E5",
"a	c #E6ACB1",
"b	c #E6ADB1",
"c	c #E6D7D8",
"d	c #E6D8D9",
"e	c #E6E6E6",
"f	c #E7D8DA",
"g	c #E7E7E7",
"h	c #E8DADB",
"i	c #E8E8E8",
"j	c #E9E9E9",
"k	c #EAEAEA",
"l	c #EBDCDE",
"m	c #EBEBEB",
"n	c #ECDDDE",
"o	c #ECECEC",
"p	c #EDDEE0",
"q	c #EDEDED",
"r	c #EEEEEE",
"s	c #EFEFEF",
"t	c #F0F0F0",
"u	c #F1F1F1",
"v	c #F2F2F2",
"w	c #F3F3F3",
"x	c #F4F4F4",
"y	c #F5F5F5",
"wwwwwwwwwwwwwwwwwwwwwwww",
"wwwwwwwwwwwwwwwwwwwwwwww",
"vvvvvvvvvvvvvvvvvvvvvvvv",
"uuuuuuuuuuuuuuuuuuuuuuuu",
"uuuuuuuuuuuuuuuuuuuuuuuu",
"ttttttttp4_'':5ptttttttt",
"sssssssa!>>>>>>!bsssssss",
"ssssssa,>>>>>>>>,bssssss",
"rrrrrl!>>=;>>;=>>~nrrrrr",
"qqqqq|>>-+$**$+->>2qqqqq",
"qqqqq(>>;$.##.$;>>:qqqqq",
"ooooo)>>>*$..@&>>>!ooooo",
"mmmmm!>>>*$..@%>>>~mmmmm",
"kkkkk^>>;$.##.$;>>/kkkkk",
"kkkkk}>>-+$**$+->>1kkkkk",
"jjjjjf!>>-;>>;->>{hjjjjj",
"iiiiii6,>>>>>>>>,3iiiiii",
"iiiiiii6~>>>>>>{3iiiiiii",
"ggggggggc<]))][dgggggggg",
"eeeeeeeeeeeeeeeeeeeeeeee",
"eeeeeeeeeeeeeeeeeeeeeeee",
"000000000000000000000000",
"999999999999999999999999",
"999999999999999999999999"};
