/* XPM */
static char * hide_pressed_xpm[] = {
"24 24 57 1",
" 	c None",
".	c #6D4F08",
"+	c #85610A",
"@	c #86610A",
"#	c #87620A",
"$	c #DA9E10",
"%	c #DA9E11",
"&	c #DBA119",
"*	c #DBA21A",
"=	c #DBA21B",
"-	c #DBA21C",
";	c #DBA31D",
">	c #DCAC3A",
",	c #DDAC39",
"'	c #DDAD3A",
")	c #DEAD39",
"!	c #DEAD3A",
"~	c #DEAE3B",
"{	c #E0C279",
"]	c #E0C27A",
"^	c #E2C37A",
"/	c #E2C47C",
"(	c #E2E2E2",
"_	c #E3C47A",
":	c #E3C57C",
"<	c #E3D0A2",
"[	c #E3E3E3",
"}	c #E4D0A1",
"|	c #E4E4E4",
"1	c #E5C67C",
"2	c #E5C67D",
"3	c #E5E5E5",
"4	c #E6E1D5",
"5	c #E6E1D6",
"6	c #E6E6E6",
"7	c #E7E7E7",
"8	c #E8D4A4",
"9	c #E8D4A5",
"0	c #E8E3D6",
"a	c #E8E3D8",
"b	c #E8E8E8",
"c	c #E9E9E9",
"d	c #EAEAEA",
"e	c #EBEBEB",
"f	c #ECE7DA",
"g	c #ECE7DB",
"h	c #ECECEC",
"i	c #EDEDED",
"j	c #EEE9DC",
"k	c #EEEEEE",
"l	c #EFEFEF",
"m	c #F0F0F0",
"n	c #F1F1F1",
"o	c #F2F2F2",
"p	c #F3F3F3",
"q	c #F4F4F4",
"r	c #F5F5F5",
"pppppppppppppppppppppppp",
"pppppppppppppppppppppppp",
"oooooooooooooooooooooooo",
"nnnnnnnnnnnnnnnnnnnnnnnn",
"nnnnnnnnnnnnnnnnnnnnnnnn",
"mmmmmmmmj1!&&~2jmmmmmmmm",
"lllllll8=$$$$$$=9lllllll",
"llllll8%$$$$$$$$%9llllll",
"kkkkkf=$$$$$$$$$$-gkkkkk",
"iiiii_$$$$$$$$$$$$:iiiii",
"iiiii)$$$$$$$$$$$$~iiiii",
"hhhhh*$$+......+$$=hhhhh",
"eeeee=$$@......#$$-eeeee",
"ddddd,$$$$$$$$$$$$'ddddd",
"ddddd^$$$$$$$$$$$$/ddddd",
"ccccc0=$$$$$$$$$$;accccc",
"bbbbbb}%$$$$$$$$%<bbbbbb",
"bbbbbbb}-$$$$$$;<bbbbbbb",
"777777774{>**>]577777777",
"666666666666666666666666",
"666666666666666666666666",
"333333333333333333333333",
"||||||||||||||||||||||||",
"||||||||||||||||||||||||"};
