/* XPM */
static char * hide_active_xpm[] = {
"24 24 57 1",
" 	c None",
".	c #E1C277",
"+	c #E1C278",
"@	c #E2E2E2",
"#	c #E3C377",
"$	c #E3C47A",
"%	c #E3D0A1",
"&	c #E3E3E3",
"*	c #E4C477",
"=	c #E4C57A",
"-	c #E4D0A0",
";	c #E4E4E4",
">	c #E5B338",
",	c #E5B439",
"'	c #E5E5E5",
")	c #E6B438",
"!	c #E6B439",
"~	c #E6B53A",
"{	c #E6C679",
"]	c #E6C67A",
"^	c #E6E1D5",
"/	c #E6E1D6",
"(	c #E6E6E6",
"_	c #E7B53A",
":	c #E7E7E7",
"<	c #E8D4A3",
"[	c #E8D4A4",
"}	c #E8E3D6",
"|	c #E8E3D8",
"1	c #E8E8E8",
"2	c #E9B126",
"3	c #E9B127",
"4	c #E9B128",
"5	c #E9B227",
"6	c #E9B228",
"7	c #E9E9E9",
"8	c #EAEAEA",
"9	c #EBEBEB",
"0	c #ECE7DA",
"a	c #ECE7DB",
"b	c #ECECEC",
"c	c #EDEDED",
"d	c #EEB628",
"e	c #EEE9DC",
"f	c #EEEEEE",
"g	c #EFB729",
"h	c #EFEFEF",
"i	c #F0F0F0",
"j	c #F1F1F1",
"k	c #F2F2F2",
"l	c #F3F3F3",
"m	c #F4F4F4",
"n	c #F5F5F5",
"o	c #F7C233",
"p	c #F8C333",
"q	c #F8C334",
"r	c #FAC536",
"llllllllllllllllllllllll",
"llllllllllllllllllllllll",
"kkkkkkkkkkkkkkkkkkkkkkkk",
"jjjjjjjjjjjjjjjjjjjjjjjj",
"jjjjjjjjjjjjjjjjjjjjjjjj",
"iiiiiiiie{!22~]eiiiiiiii",
"hhhhhhh<5qrrrrq3[hhhhhhh",
"hhhhhh<grrrrrrrrg[hhhhhh",
"fffff05rrrrrrrrrr6afffff",
"ccccc*qrrrrrrrrrrp=ccccc",
"ccccc)rrrrrrrrrrrr_ccccc",
"bbbbb5rrrrrrrrrrrr5bbbbb",
"999995rrrrrrrrrrrr499999",
"88888>rrrrrrrrrrrr!88888",
"88888#qrrrrrrrrrro$88888",
"77777}3rrrrrrrrrr5|77777",
"111111-grrrrrrrrd%111111",
"1111111-4prrrro5%1111111",
"::::::::^.,22,+/::::::::",
"((((((((((((((((((((((((",
"((((((((((((((((((((((((",
"''''''''''''''''''''''''",
";;;;;;;;;;;;;;;;;;;;;;;;",
";;;;;;;;;;;;;;;;;;;;;;;;"};
