/* XPM */
static char * hide_inactive_xpm[] = {
"24 24 43 1",
" 	c None",
".	c #A4AAB7",
"+	c #A7ADB9",
"@	c #A8ADBA",
"#	c #A8AEBA",
"$	c #B1B6C0",
"%	c #B1B6C1",
"&	c #B2B7C1",
"*	c #B2B7C2",
"=	c #C5C8CE",
"-	c #C5C8CF",
";	c #C6C9D0",
">	c #C7CAD1",
",	c #C8CBD1",
"'	c #C9CCD3",
")	c #D2D4D8",
"!	c #D6D8DC",
"~	c #E2E2E2",
"{	c #E2E2E3",
"]	c #E3E3E3",
"^	c #E3E4E5",
"/	c #E4E4E4",
"(	c #E4E4E5",
"_	c #E5E5E5",
":	c #E6E6E6",
"<	c #E7E7E7",
"[	c #E7E8E9",
"}	c #E8E8E8",
"|	c #E8E8E9",
"1	c #E9E9E9",
"2	c #E9EAEB",
"3	c #EAEAEA",
"4	c #EBEBEB",
"5	c #ECECEC",
"6	c #EDEDED",
"7	c #EEEEEE",
"8	c #EFEFEF",
"9	c #F0F0F0",
"0	c #F1F1F1",
"a	c #F2F2F2",
"b	c #F3F3F3",
"c	c #F4F4F4",
"d	c #F5F5F5",
"bbbbbbbbbbbbbbbbbbbbbbbb",
"bbbbbbbbbbbbbbbbbbbbbbbb",
"aaaaaaaaaaaaaaaaaaaaaaaa",
"000000000000000000000000",
"000000000000000000000000",
"999999992'*++*'299999999",
"8888888!@......@!8888888",
"888888!..........!888888",
"77777[@..........#|77777",
"66666>............,66666",
"66666&............*66666",
"55555+............@55555",
"44444@............#44444",
"33333%............%33333",
"33333;............>33333",
"11111^@..........#(11111",
"}}}}}})..........)}}}}}}",
"}}}}}}})#......#)}}}}}}}",
"<<<<<<<<{=$++$-{<<<<<<<<",
"::::::::::::::::::::::::",
"::::::::::::::::::::::::",
"________________________",
"////////////////////////",
"////////////////////////"};
