/* XPM */
static char * maximize_active_xpm[] = {
"24 24 56 1",
" 	c None",
".	c #28D537",
"+	c #29D536",
"@	c #2AD437",
"#	c #2AD536",
"$	c #2AD537",
"%	c #2BD437",
"&	c #2BDB39",
"*	c #2BDC3A",
"=	c #2CDB3A",
"-	c #36E746",
";	c #39EA49",
">	c #3AD345",
",	c #3BD246",
"'	c #3BD346",
")	c #3BD446",
"!	c #3BD447",
"~	c #3CD446",
"{	c #79D47E",
"]	c #79D67F",
"^	c #79D780",
"/	c #7AD57F",
"(	c #7BD982",
"_	c #7CD681",
":	c #7CD982",
"<	c #A1DCA5",
"[	c #A2DBA6",
"}	c #A4DFA8",
"|	c #A5E0A9",
"1	c #D6E4D6",
"2	c #D6E4D7",
"3	c #D7E6D8",
"4	c #D8E6D9",
"5	c #DBEADC",
"6	c #DCEADC",
"7	c #DDECDE",
"8	c #E2E2E2",
"9	c #E3E3E3",
"0	c #E4E4E4",
"a	c #E5E5E5",
"b	c #E6E6E6",
"c	c #E7E7E7",
"d	c #E8E8E8",
"e	c #E9E9E9",
"f	c #EAEAEA",
"g	c #EBEBEB",
"h	c #ECECEC",
"i	c #EDEDED",
"j	c #EEEEEE",
"k	c #EFEFEF",
"l	c #F0F0F0",
"m	c #F1F1F1",
"n	c #F2F2F2",
"o	c #F3F3F3",
"p	c #F4F4F4",
"q	c #F5F5F5",
"oooooooooooooooooooooooo",
"oooooooooooooooooooooooo",
"nnnnnnnnnnnnnnnnnnnnnnnn",
"mmmmmmmmmmmmmmmmmmmmmmmm",
"mmmmmmmmmmmmmmmmmmmmmmmm",
"llllllll7().+!:7llllllll",
"kkkkkkk}$-;;;;-#|kkkkkkk",
"kkkkkk}=;;;;;;;;*|kkkkkk",
"jjjjj5$;;;;;;;;;;@6jjjjj",
"iiiii^-;;;;;;;;;;-_iiiii",
"iiiii>;;;;;;;;;;;;~iiiii",
"hhhhh@;;;;;;;;;;;;$hhhhh",
"ggggg$;;;;;;;;;;;;$ggggg",
"fffff>;;;;;;;;;;;;'fffff",
"fffff]-;;;;;;;;;;-_fffff",
"eeeee3#;;;;;;;;;;%4eeeee",
"dddddd<*;;;;;;;;&[dddddd",
"ddddddd<$-;;;;-%[ddddddd",
"cccccccc1{,++,/2cccccccc",
"bbbbbbbbbbbbbbbbbbbbbbbb",
"bbbbbbbbbbbbbbbbbbbbbbbb",
"aaaaaaaaaaaaaaaaaaaaaaaa",
"000000000000000000000000",
"000000000000000000000000"};
