/* XPM */
static char * maximize_pressed_xpm[] = {
"24 24 57 1",
" 	c None",
".	c #09600F",
"+	c #0A6810",
"@	c #0A6A10",
"#	c #0D8114",
"$	c #11B01B",
"%	c #12B21C",
"&	c #13C11E",
"*	c #14C11F",
"=	c #1CC327",
"-	c #1DC328",
";	c #1EC328",
">	c #1FC329",
",	c #20C42A",
"'	c #3BC944",
")	c #3CC845",
"!	c #3CC945",
"~	c #3CCA45",
"{	c #3DCA46",
"]	c #7BD380",
"^	c #7CD481",
"/	c #7CD581",
"(	c #7CD682",
"_	c #7ED683",
":	c #7ED884",
"<	c #7FD884",
"[	c #A2DCA6",
"}	c #A3DBA7",
"|	c #A5DFA9",
"1	c #A6E0AA",
"2	c #D6E4D6",
"3	c #D6E4D7",
"4	c #D7E6D8",
"5	c #D8E6D9",
"6	c #DBEADC",
"7	c #DCEADC",
"8	c #DDECDE",
"9	c #E2E2E2",
"0	c #E3E3E3",
"a	c #E4E4E4",
"b	c #E5E5E5",
"c	c #E6E6E6",
"d	c #E7E7E7",
"e	c #E8E8E8",
"f	c #E9E9E9",
"g	c #EAEAEA",
"h	c #EBEBEB",
"i	c #ECECEC",
"j	c #EDEDED",
"k	c #EEEEEE",
"l	c #EFEFEF",
"m	c #F0F0F0",
"n	c #F1F1F1",
"o	c #F2F2F2",
"p	c #F3F3F3",
"q	c #F4F4F4",
"r	c #F5F5F5",
"pppppppppppppppppppppppp",
"pppppppppppppppppppppppp",
"oooooooooooooooooooooooo",
"nnnnnnnnnnnnnnnnnnnnnnnn",
"nnnnnnnnnnnnnnnnnnnnnnnn",
"mmmmmmmm8:~=={<8mmmmmmmm",
"lllllll|;&&&&&&;1lllllll",
"llllll|*&&&&&&&&*1llllll",
"kkkkk6;&&&&&&&&&&>7kkkkk",
"jjjjj(&&&&$+..#&&&_jjjjj",
"jjjjj'&&&$&$+..&&&{jjjjj",
"iiiii-&&&+$&%@.&&&;iiiii",
"hhhhh;&&&.+$&%@&&&>hhhhh",
"ggggg'&&&..+$&$&&&!ggggg",
"ggggg/&&&#..+$&&&&_ggggg",
"fffff4;&&&&&&&&&&,5fffff",
"eeeeee[*&&&&&&&&*}eeeeee",
"eeeeeee[>&&&&&&,}eeeeeee",
"dddddddd2])--)^3dddddddd",
"cccccccccccccccccccccccc",
"cccccccccccccccccccccccc",
"bbbbbbbbbbbbbbbbbbbbbbbb",
"aaaaaaaaaaaaaaaaaaaaaaaa",
"aaaaaaaaaaaaaaaaaaaaaaaa"};
