/* XPM */
static char * title_1_active_xpm[] = {
"5 28 20 1",
" 	g #F5F5F5",
".	g #F4F4F4",
"+	g #F3F3F3",
"@	g #F2F2F2",
"#	g #F1F1F1",
"$	g #F0F0F0",
"%	g #EFEFEF",
"&	g #EEEEEE",
"*	g #EDEDED",
"=	g #ECECEC",
"-	g #EBEBEB",
";	g #EAEAEA",
">	g #E9E9E9",
",	g #E8E8E8",
"'	g #E7E7E7",
")	g #E6E6E6",
"!	g #E5E5E5",
"~	g #E4E4E4",
"{	g #E3E3E3",
"]	g #E2E2E2",
"     ",
".....",
"+++++",
"+++++",
"@@@@@",
"#####",
"#####",
"$$$$$",
"%%%%%",
"%%%%%",
"&&&&&",
"*****",
"*****",
"=====",
"-----",
";;;;;",
";;;;;",
">>>>>",
",,,,,",
",,,,,",
"'''''",
")))))",
")))))",
"!!!!!",
"~~~~~",
"~~~~~",
"{{{{{",
"]]]]]"};
