/* XPM */
static char * button_xpm[] = {
"20 20 44 1",
" 	c None",
".	c #0E0E0E",
"+	c #0D0D0D",
"@	c #0D0C0C",
"#	c #0B0C0B",
"$	c #0B0B0B",
"%	c #050505",
"&	c #020202",
"*	c #000000",
"=	c #0A0B0A",
"-	c #080908",
";	c #121212",
">	c #151515",
",	c #0A0A0A",
"'	c #161616",
")	c #090909",
"!	c #040404",
"~	c #0B0C0C",
"{	c #161717",
"]	c #080909",
"^	c #010101",
"/	c #141314",
"(	c #181718",
"_	c #080708",
":	c #181818",
"<	c #070707",
"[	c #070607",
"}	c #151616",
"|	c #181919",
"1	c #050606",
"2	c #020303",
"3	c #0F0F0F",
"4	c #191919",
"5	c #111211",
"6	c #181918",
"7	c #040405",
"8	c #030304",
"9	c #000001",
"0	c #0E0F0E",
"a	c #151615",
"b	c #040304",
"c	c #030303",
"d	c #020203",
"e	c #020102",
"....................",
"++++++++++++++++++++",
"@@@@@@@@@@@@@@@@@@@@",
"####################",
"$$$$$$$%&**&%$$$$$$$",
"=====-&$;>>;$&-=====",
",,,,,&.''''''.&,,,,,",
"))))!~{{{{{{{{~!))))",
"]]]]^/((((((((/^]]]]",
"____*'::::::::'*____",
"<<<<*'::::::::'*<<<<",
"[[[[^}||||||||}^[[[[",
"11112344444444321111",
"%%%%%^56666665^%%%%%",
"77777890a66a09877777",
"bbbbbbb999999bbbbbbb",
"cccccccccccccccccccc",
"dddddddddddddddddddd",
"eeeeeeeeeeeeeeeeeeee",
"^^^^^^^^^^^^^^^^^^^^"};
